Jumper_states
version=1
nRows=4
nColumns=171
inDegrees=yes

# SIMM Motion File Header:
name Jumper_states
datacolumns 171
datarows 4
otherdata 1
range 0.16811630 0.16972375
endheader
time	pelvis_tilt	pelvis_list	pelvis_rotation	pelvis_tx	pelvis_ty	pelvis_tz	hip_flexion_r	hip_adduction_r	hip_rotation_r	knee_angle_r	tib_tx_r	tib_ty_r	pat_angle_r	pat_tx_r	pat_ty_r	ankle_angle_r	subtalar_angle_r	mtp_angle_r	hip_flexion_l	hip_adduction_l	hip_rotation_l	knee_angle_l	pat_angle_l	pat_tx_l	pat_ty_l	ankle_angle_l	subtalar_angle_l	mtp_angle_l	lumbar_extension	lumbar_bending	lumbar_rotation	pelvis_tilt_u	pelvis_list_u	pelvis_rotation_u	pelvis_tx_u	pelvis_ty_u	pelvis_tz_u	hip_flexion_r_u	hip_adduction_r_u	hip_rotation_r_u	knee_angle_r_u	tib_tx_r_u	tib_ty_r_u	pat_angle_r_u	pat_tx_r_u	pat_ty_r_u	ankle_angle_r_u	subtalar_angle_r_u	mtp_angle_r_u	hip_flexion_l_u	hip_adduction_l_u	hip_rotation_l_u	knee_angle_l_u	pat_angle_l_u	pat_tx_l_u	pat_ty_l_u	ankle_angle_l_u	subtalar_angle_l_u	mtp_angle_l_u	lumbar_extension_u	lumbar_bending_u	lumbar_rotation_u	glut_med1_r.activation	glut_med1_r.fiber_length	glut_med2_r.activation	glut_med2_r.fiber_length	glut_med3_r.activation	glut_med3_r.fiber_length	bifemlh_r.activation	bifemlh_r.fiber_length	bifemsh_r.activation	bifemsh_r.fiber_length	sar_r.activation	sar_r.fiber_length	add_mag2_r.activation	add_mag2_r.fiber_length	tfl_r.activation	tfl_r.fiber_length	pect_r.activation	pect_r.fiber_length	grac_r.activation	grac_r.fiber_length	glut_max1_r.activation	glut_max1_r.fiber_length	glut_max2_r.activation	glut_max2_r.fiber_length	glut_max3_r.activation	glut_max3_r.fiber_length	iliacus_r.activation	iliacus_r.fiber_length	psoas_r.activation	psoas_r.fiber_length	quad_fem_r.activation	quad_fem_r.fiber_length	gem_r.activation	gem_r.fiber_length	peri_r.activation	peri_r.fiber_length	rect_fem_r.activation	rect_fem_r.fiber_length	vas_int_r.activation	vas_int_r.fiber_length	med_gas_r.activation	med_gas_r.fiber_length	soleus_r.activation	soleus_r.fiber_length	tib_post_r.activation	tib_post_r.fiber_length	tib_ant_r.activation	tib_ant_r.fiber_length	glut_med1_l.activation	glut_med1_l.fiber_length	glut_med2_l.activation	glut_med2_l.fiber_length	glut_med3_l.activation	glut_med3_l.fiber_length	bifemlh_l.activation	bifemlh_l.fiber_length	bifemsh_l.activation	bifemsh_l.fiber_length	sar_l.activation	sar_l.fiber_length	add_mag2_l.activation	add_mag2_l.fiber_length	tfl_l.activation	tfl_l.fiber_length	pect_l.activation	pect_l.fiber_length	grac_l.activation	grac_l.fiber_length	glut_max1_l.activation	glut_max1_l.fiber_length	glut_max2_l.activation	glut_max2_l.fiber_length	glut_max3_l.activation	glut_max3_l.fiber_length	iliacus_l.activation	iliacus_l.fiber_length	psoas_l.activation	psoas_l.fiber_length	quad_fem_l.activation	quad_fem_l.fiber_length	gem_l.activation	gem_l.fiber_length	peri_l.activation	peri_l.fiber_length	rect_fem_l.activation	rect_fem_l.fiber_length	vas_int_l.activation	vas_int_l.fiber_length	med_gas_l.activation	med_gas_l.fiber_length	soleus_l.activation	soleus_l.fiber_length	tib_post_l.activation	tib_post_l.fiber_length	tib_ant_l.activation	tib_ant_l.fiber_length	ercspn_r.activation	ercspn_r.fiber_length	ercspn_l.activation	ercspn_l.fiber_length	intobl_r.activation	intobl_r.fiber_length	intobl_l.activation	intobl_l.fiber_length	extobl_r.activation	extobl_r.fiber_length	extobl_l.activation	extobl_l.fiber_length
      0.16811630	     -8.95567594	      0.14881878	      0.73222476	      0.05039775	      0.88998819	     -0.00207469	     35.01655058	     -4.81018902	     11.20287716	    -42.96815597	      0.00248709	     -0.40144008	     16.68369831	      0.04232244	     -0.02098673	     13.49561153	     14.24999998	     -0.00000000	     35.12797343	     -3.56810252	     12.13996448	    -42.75169374	     16.66888427	      0.04237247	     -0.02099484	     13.17575648	     14.24999998	     -0.00000000	    -15.26095926	      0.03585283	     -0.26344503	    139.11542810	      2.35010246	      6.38247159	      0.36014213	      2.24190969	     -0.01915441	   -456.95497984	    -47.14465141	     48.99018680	    580.45316017	     -0.07039707	      0.12327502	    -39.49600245	      0.13427250	     -0.02171479	   -423.92171847	      0.00000000	      0.00000000	   -453.24166669	    -43.62667222	     58.88271872	    580.34717154	    -39.94618255	      0.13399183	     -0.02177185	   -427.40875790	      0.00000000	     -0.00000000	    -31.67325984	      0.70496386	      0.20548061	      0.76190092	      0.03689332	      0.90195862	      0.08185470	      0.99626406	      0.07040111	      0.99990401	      0.10222710	      0.46297759	      0.14911438	      0.80500195	      0.42228315	      0.99989876	      0.09474930	      0.69109176	      0.06846320	      0.99999015	      0.05977583	      0.87185234	      0.30456178	      0.99989494	      0.09522218	      0.99989755	      0.11088585	      1.00000000	      0.13758849	      0.21538492	      0.08030480	      0.31730688	      0.07352582	      1.00000000	      0.06172064	      0.99947802	      0.03037313	      0.99989494	      0.02469275	      0.99807484	      0.09641549	      0.94032373	      0.09776239	      0.99331690	      0.07957390	      0.99479315	      0.08369824	      0.99989494	      0.02697715	      0.07634211	      0.06517568	      0.76190092	      0.03697648	      0.90195862	      0.08253766	      0.99626406	      0.07146062	      0.99990486	      0.10209841	      0.46297756	      0.14922709	      0.80500550	      0.42281221	      0.99989780	      0.09348184	      0.69109176	      0.06882699	      0.99999591	      0.05909700	      0.87185234	      0.30336596	      0.99989494	      0.09602915	      0.99989755	      0.11153558	      1.00000000	      0.13738732	      0.21538492	      0.08001885	      0.31730694	      0.07331234	      1.00000000	      0.06235184	      0.99948345	      0.03129238	      0.99989494	      0.02553569	      0.99807484	      0.09623342	      0.94032378	      0.09760571	      0.99330999	      0.07947383	      0.99479316	      0.08351122	      0.99989494	      0.02693963	      0.07632529	      0.06540445	      0.99990736	      0.12955479	      0.99990732	      0.12949901	      0.55901837	      0.08309660	      0.55901837	      0.08356469	      0.49950788	      0.11325764	      0.49950788	      0.11292530
      0.16865212	     -8.88160812	      0.15007541	      0.73563397	      0.05059045	      0.89118978	     -0.00208496	     34.77212863	     -4.83571684	     11.22832898	    -42.65672270	      0.00244923	     -0.40137411	     16.66233079	      0.04239439	     -0.02099840	     13.26769242	     14.24999998	     -0.00000000	     34.88554364	     -3.59177822	     12.17067672	    -42.44030211	     16.64727318	      0.04244426	     -0.02100654	     12.94588959	     14.24999998	     -0.00000000	    -15.27729311	      0.03622652	     -0.26331720	    137.24334595	      2.33902979	      6.34164147	      0.35906351	      2.24295144	     -0.01916200	   -455.21453508	    -48.12877846	     46.02253879	    581.94034240	     -0.07090434	      0.12296754	    -40.25791635	      0.13424683	     -0.02185869	   -426.87166793	      0.00000000	      0.00000000	   -451.49291795	    -44.73436039	     55.76091166	    581.89215490	    -40.71695726	      0.13397831	     -0.02191900	   -430.65634032	      0.00000000	     -0.00000000	    -29.17471840	      0.68945694	      0.27300406	      0.76951509	      0.03684849	      0.90248152	      0.08178113	      0.99499327	      0.07032279	      0.99990655	      0.10214687	      0.46541908	      0.14927127	      0.80997670	      0.42264090	      0.99990143	      0.09458860	      0.70162409	      0.06858347	      0.99999041	      0.05985952	      0.87069673	      0.30465218	      0.99989771	      0.09508905	      0.99990025	      0.11072062	      1.00000000	      0.13734291	      0.23517968	      0.08042303	      0.33213971	      0.07363840	      1.00000000	      0.06167191	      0.99949182	      0.03038663	      0.99989771	      0.02467599	      0.99812580	      0.09642216	      0.91999670	      0.09755757	      0.99349444	      0.07954234	      0.99493132	      0.08356673	      0.99989771	      0.02695195	      0.07632872	      0.06533867	      0.76951509	      0.03693458	      0.90248152	      0.08246913	      0.99499327	      0.07138819	      0.99990737	      0.10202019	      0.46541904	      0.14938391	      0.80998012	      0.42316939	      0.99990050	      0.09331917	      0.70162409	      0.06894830	      0.99999602	      0.05917985	      0.87069673	      0.30345540	      0.99989771	      0.09590229	      0.99990025	      0.11137591	      1.00000000	      0.13714431	      0.23517968	      0.08013735	      0.33213976	      0.07342513	      1.00000000	      0.06230479	      0.99949711	      0.03130647	      0.99989771	      0.02552273	      0.99812580	      0.09624004	      0.91999675	      0.09740062	      0.99348771	      0.07944085	      0.99493132	      0.08337787	      0.99989771	      0.02691402	      0.07631204	      0.06556872	      0.99990981	      0.12956469	      0.99990977	      0.12950940	      0.57466571	      0.08306724	      0.57466571	      0.08353655	      0.51774825	      0.11321036	      0.51774825	      0.11287865
      0.16918794	     -8.80869542	      0.15132410	      0.73901964	      0.05078245	      0.89239162	     -0.00209522	     34.52887590	     -4.86175289	     11.25220831	    -42.34459840	      0.00241112	     -0.40130832	     16.64055959	      0.04246629	     -0.02101015	     13.03806561	     14.24999998	     -0.00000000	     34.64428603	     -3.61602941	     12.19972786	    -42.12818722	     16.62525359	      0.04251603	     -0.02101833	     12.71416003	     14.24999998	     -0.00000000	    -15.29212045	      0.03659140	     -0.26315120	    134.84460357	      2.32079402	      6.29490191	      0.35754314	      2.24288159	     -0.01915967	   -452.64121506	    -49.04282768	     43.11952987	    583.04506533	     -0.07135439	      0.12257106	    -41.00335837	      0.13412957	     -0.02199018	   -430.29807002	      0.00000000	      0.00000000	   -448.91646405	    -45.77562204	     52.68270149	    583.05741266	    -41.47137639	      0.13387388	     -0.02205382	   -434.35586753	      0.00000000	     -0.00000000	    -26.09839935	      0.67242486	      0.34765255	      0.77683683	      0.03680371	      0.90298932	      0.08170760	      0.99375711	      0.07024412	      0.99990902	      0.10206667	      0.46774681	      0.14942874	      0.81477785	      0.42299656	      0.99990404	      0.09442878	      0.71169827	      0.06869741	      0.99999067	      0.05994372	      0.86956980	      0.30474446	      0.99990042	      0.09495511	      0.99990289	      0.11055425	      1.00000000	      0.13709652	      0.25316027	      0.08054671	      0.34589821	      0.07375466	      1.00000000	      0.06162267	      0.99950526	      0.03039957	      0.99990042	      0.02465896	      0.99817541	      0.09642828	      0.90048768	      0.09735411	      0.99366723	      0.07950994	      0.99506581	      0.08343368	      0.99990042	      0.02692643	      0.07631545	      0.06550274	      0.77683683	      0.03689280	      0.90298932	      0.08240066	      0.99375711	      0.07131540	      0.99990982	      0.10194204	      0.46774678	      0.14954130	      0.81478115	      0.42352444	      0.99990313	      0.09315744	      0.71169827	      0.06906324	      0.99999612	      0.05926327	      0.86956980	      0.30354676	      0.99990042	      0.09577461	      0.99990289	      0.11121507	      1.00000000	      0.13690051	      0.25316027	      0.08026134	      0.34589826	      0.07354159	      1.00000000	      0.06225717	      0.99951041	      0.03131996	      0.99990042	      0.02550952	      0.99817541	      0.09624610	      0.90048773	      0.09719690	      0.99366068	      0.07940702	      0.99506581	      0.08324301	      0.99990042	      0.02688810	      0.07629891	      0.06573417	      0.99991219	      0.12957448	      0.99991216	      0.12951968	      0.58946583	      0.08303678	      0.58946583	      0.08350730	      0.53488402	      0.11316161	      0.53488402	      0.11283056
      0.16972375	     -8.73715426	      0.15256155	      0.74237905	      0.05097354	      0.89359321	     -0.00210549	     34.28715667	     -4.88826156	     11.27454787	    -42.03196788	      0.00237278	     -0.40124277	     16.61839256	      0.04253811	     -0.02102197	     12.80647911	     14.24999998	     -0.00000000	     34.40456274	     -3.64082198	     12.22714155	    -41.81553518	     16.60283349	      0.04258771	     -0.02103018	     12.48033860	     14.24999998	     -0.00000000	    -15.30520952	      0.03694715	     -0.26294372	    132.16317332	      2.29743969	      6.24394405	      0.35567371	      2.24212960	     -0.01915067	   -449.54001275	    -49.89415776	     40.27409761	    583.84139397	     -0.07175535	      0.12210262	    -41.73598207	      0.13393864	     -0.02211183	   -434.17832498	      0.00000000	      0.00000000	   -445.81488884	    -46.75601816	     49.64911974	    583.90745343	    -42.21246353	      0.13369424	     -0.02217856	   -438.45305793	      0.00000000	     -0.00000000	    -22.73275823	      0.65565834	      0.42746454	      0.78388100	      0.03675914	      0.90348245	      0.08163418	      0.99255459	      0.07016519	      0.99991143	      0.10198659	      0.46996672	      0.14958665	      0.81941283	      0.42334960	      0.99990658	      0.09427007	      0.72134246	      0.06880689	      0.99999091	      0.06002825	      0.86847080	      0.30483862	      0.99990305	      0.09482056	      0.99990546	      0.11038701	      1.00000000	      0.13684976	      0.26958847	      0.08067413	      0.35869883	      0.07387422	      1.00000000	      0.06157308	      0.99951835	      0.03041196	      0.99990305	      0.02464165	      0.99822371	      0.09643383	      0.88174906	      0.09715141	      0.99383542	      0.07947669	      0.99519672	      0.08329912	      0.99990305	      0.02690060	      0.07630229	      0.06566808	      0.78388100	      0.03685125	      0.90348245	      0.08233230	      0.99255459	      0.07124231	      0.99991220	      0.10186403	      0.46996669	      0.14969917	      0.81941602	      0.42387685	      0.99990569	      0.09299691	      0.72134246	      0.06917370	      0.99999622	      0.05934710	      0.86847080	      0.30364003	      0.99990305	      0.09564628	      0.99990546	      0.11105332	      1.00000000	      0.13665636	      0.26958847	      0.08038904	      0.35869888	      0.07366133	      1.00000000	      0.06220916	      0.99952335	      0.03133286	      0.99990305	      0.02549606	      0.99822371	      0.09625159	      0.88174910	      0.09699395	      0.99382904	      0.07937231	      0.99519672	      0.08310663	      0.99990305	      0.02686186	      0.07628588	      0.06590100	      0.99991451	      0.12958403	      0.99991448	      0.12952972	      0.60348980	      0.08300571	      0.60348980	      0.08347740	      0.55102181	      0.11311215	      0.55102181	      0.11278178
